<svg id="gradient" height="512" viewBox="0 0 64 64" width="512" xmlns="http://www.w3.org/2000/svg" xmlns:xlink="http://www.w3.org/1999/xlink"><linearGradient id="linear-gradient" gradientUnits="userSpaceOnUse" x1="-2.807" x2="67.677" y1="22" y2="22"><stop offset="0" stop-color="#d8b5ff"/><stop offset="1" stop-color="#1eae98"/></linearGradient><linearGradient id="linear-gradient-3" x1="-2.807" x2="67.677" xlink:href="#linear-gradient" y1="14" y2="14"/><linearGradient id="linear-gradient-7" x1="-2.807" x2="67.677" xlink:href="#linear-gradient" y1="30.5" y2="30.5"/><linearGradient id="linear-gradient-8" x1="-2.807" x2="67.677" xlink:href="#linear-gradient" y1="44" y2="44"/><linearGradient id="linear-gradient-10" x1="-2.807" x2="67.677" xlink:href="#linear-gradient" y1="9" y2="9"/><linearGradient id="linear-gradient-24" x1="-2.807" x2="67.677" xlink:href="#linear-gradient" y1="48" y2="48"/><linearGradient id="linear-gradient-36" x1="-2.807" x2="67.677" xlink:href="#linear-gradient" y1="52" y2="52"/><path d="m36 21h2v2h-2z" fill="url(#linear-gradient)"/><path d="m40 21h3v2h-3z" fill="url(#linear-gradient)"/><path d="m22 13h2v2h-2z" fill="url(#linear-gradient-3)"/><path d="m27 13h4v2h-4z" fill="url(#linear-gradient-3)"/><path d="m33 13h6v2h-6z" fill="url(#linear-gradient-3)"/><path d="m41 13h2v2h-2z" fill="url(#linear-gradient-3)"/><path d="m55.632 31.733a4.045 4.045 0 0 0 -.34-.733h.708a1 1 0 0 0 1-1v-2h2v4h2v-10h-2v4h-2v-2a1 1 0 0 0 -1-1h-9v-20a1 1 0 0 0 -1-1h-28a1 1 0 0 0 -1 1v20h-9a1 1 0 0 0 -1 1v2h-2v-4h-2v10h2v-4h2v2a1 1 0 0 0 1 1h.708a4.032 4.032 0 0 0 -.339.732l-6.317 18.952a1 1 0 0 0 -.052.316v4a4 4 0 0 0 4 4h52a4 4 0 0 0 4-4v-4a1 1 0 0 0 -.052-.316zm-.632-6.733v4h-8v-4zm-36-21h26v25h-3a1 1 0 0 0 -1 1 8.99 8.99 0 0 1 -14.036 7.45l5.743-5.743a1 1 0 0 0 .293-.707v-5h1a1 1 0 0 0 1-1v-6a1 1 0 0 0 -1-1h-4a1 1 0 0 0 -1 1v6a1 1 0 0 0 1 1h1v4.586l-5.558 5.558a8.957 8.957 0 0 1 -2.437-5.844 1 1 0 0 0 -.955-1.3h-3.05zm12 20v-4h2v4zm-22 1h8v4h-8zm51 30a2 2 0 0 1 -2 2h-52a2 2 0 0 1 -2-2v-3.838l6.267-18.8a1.992 1.992 0 0 1 1.893-1.362h8.885a11 11 0 0 0 21.91 0h8.885a1.994 1.994 0 0 1 1.894 1.365l6.266 18.797z" fill="url(#linear-gradient-7)"/><path d="m12 43h2v2h-2z" fill="url(#linear-gradient-8)"/><path d="m16 43h2v2h-2z" fill="url(#linear-gradient-8)"/><path d="m22 8h4v2h-4z" fill="url(#linear-gradient-10)"/><path d="m28 8h2v2h-2z" fill="url(#linear-gradient-10)"/><path d="m32 8h2v2h-2z" fill="url(#linear-gradient-10)"/><path d="m36 8h2v2h-2z" fill="url(#linear-gradient-10)"/><path d="m40 8h3v2h-3z" fill="url(#linear-gradient-10)"/><path d="m20 43h2v2h-2z" fill="url(#linear-gradient-8)"/><path d="m24 43h2v2h-2z" fill="url(#linear-gradient-8)"/><path d="m28 43h2v2h-2z" fill="url(#linear-gradient-8)"/><path d="m32 43h2v2h-2z" fill="url(#linear-gradient-8)"/><path d="m36 43h2v2h-2z" fill="url(#linear-gradient-8)"/><path d="m40 43h2v2h-2z" fill="url(#linear-gradient-8)"/><path d="m44 43h2v2h-2z" fill="url(#linear-gradient-8)"/><path d="m48 43h2v2h-2z" fill="url(#linear-gradient-8)"/><path d="m52 43h2v2h-2z" fill="url(#linear-gradient-8)"/><g fill="url(#linear-gradient-24)"><path d="m10 47h2v2h-2z"/><path d="m14 47h2v2h-2z"/><path d="m18 47h2v2h-2z"/><path d="m22 47h2v2h-2z"/><path d="m26 47h2v2h-2z"/><path d="m30 47h2v2h-2z"/><path d="m34 47h2v2h-2z"/><path d="m38 47h2v2h-2z"/><path d="m42 47h2v2h-2z"/><path d="m46 47h2v2h-2z"/><path d="m50 47h2v2h-2z"/><path d="m54 47h2v2h-2z"/></g><path d="m24 51h16v2h-16z" fill="url(#linear-gradient-36)"/><path d="m20 51h2v2h-2z" fill="url(#linear-gradient-36)"/><path d="m42 51h2v2h-2z" fill="url(#linear-gradient-36)"/><path d="m46 51h2v2h-2z" fill="url(#linear-gradient-36)"/><path d="m50 51h2v2h-2z" fill="url(#linear-gradient-36)"/><path d="m16 51h2v2h-2z" fill="url(#linear-gradient-36)"/><path d="m12 51h2v2h-2z" fill="url(#linear-gradient-36)"/></svg>